<?xml version="1.0" encoding="UTF-8" standalone="no"?>
<!-- Created with Inkscape (http://www.inkscape.org/) -->
<svg
    width="140"
    height="140"
    viewBox="0 0 160 160"
    version="1.1"
    id="svg1"
    inkscape:version="1.3.2 (091e20ef0f, 2023-11-25)"
    sodipodi:docname="5bitsone.svg"
    inkscape:export-filename="drawing.png"
    inkscape:export-xdpi="96"
    inkscape:export-ydpi="96"
    xmlns:inkscape="http://www.inkscape.org/namespaces/inkscape"
    xmlns:sodipodi="http://sodipodi.sourceforge.net/DTD/sodipodi-0.dtd"
    xmlns="http://www.w3.org/2000/svg"
    xmlns:svg="http://www.w3.org/2000/svg"
    xmlns:rdf="http://www.w3.org/1999/02/22-rdf-syntax-ns#"
    xmlns:cc="http://creativecommons.org/ns#"
    xmlns:dc="http://purl.org/dc/elements/1.1/">
  <title id="title1">5bits.one</title>
  <style>
    :root  {
    --bg-color: #f2f2f2;
    --fg-color: #222222;
    }

    svg {
    stroke: var(--fg-color);
    fill: var(--fg-color);
    }

    @media (prefers-color-scheme: dark) {
    svg {
    stroke: var(--bg-color);
    fill: var(--bg-color);
    }
    }
  </style>
  <g
      id="g25"
      inkscape:label="Vector"
      style="display:inline"
      transform="translate(-30.000003,-73.500003)"
      sodipodi:insensitive="true">
    <g
	id="g7"
	inkscape:label="Border"
	inkscape:groupmode="layer">
      <rect
          style="display:inline;fill:none;stroke-width:4.5;stroke-linecap:round;stroke-linejoin:round;stroke-dasharray:none"
          id="rect7"
          width="144.66125"
          height="144.66125"
          x="37.669376"
          y="81.169373" />
    </g>
    <g
	inkscape:groupmode="layer"
	id="g16"
	inkscape:label="Numbers 1"
	style="display:inline;stroke:none">
      <path
          d="m 156.14,167.97998 v -25.04 l -4.76,3.64 -2.28,-2.64 7.04,-5.36 h 3.84 v 29.4 z"
          id="text8"
          aria-label="1&#10;" />
      <path
          d="M 156.14,211.34 V 186.3 l -4.76,3.64 -2.28,-2.64 7.04,-5.36 h 3.84 v 29.4 z"
          id="text10"
          aria-label="1&#10;" />
      <path
          d="M 108.94,211.34 V 186.3 l -4.75999,3.64 -2.28,-2.64 7.03999,-5.36 h 3.84 v 29.4 z"
          id="text12"
          aria-label="1&#10;" />
      <path
          d="M 108.94,124.62 V 99.580006 l -4.75999,3.640004 -2.28,-2.64 7.03999,-5.360004 h 3.84 V 124.62 Z"
          id="text14"
          aria-label="1&#10;" />
      <path
          d="M 61.74001,211.34 V 186.3 l -4.76,3.64 -2.28,-2.64 7.04,-5.36 h 3.84 v 29.4 z"
          id="text16"
          aria-label="1&#10;" />
    </g>
    <g
	inkscape:groupmode="layer"
	id="g24"
	inkscape:label="Numbers 0"
	style="display:inline;stroke:none">
      <path
          d="m 62.800006,168.29998 q -1.2,0 -2.36,-0.2 -1.16,-0.2 -2.24,-0.72 -1.08,-0.52 -1.96,-1.32 -0.84,-0.84 -1.4,-1.88 -0.52,-1.08 -0.76,-2.24 -0.2,-1.16 -0.2,-2.36 v -12.6 q 0,-1.2 0.2,-2.36 0.24,-1.16 0.76,-2.2 0.56,-1.08 1.4,-1.88 0.88,-0.84 1.96,-1.36 1.08,-0.52 2.24,-0.72 1.16,-0.2 2.36,-0.2 1.2,0 2.36,0.2 1.16,0.2 2.24,0.72 1.08,0.52 1.92,1.36 0.88,0.8 1.4,1.88 0.56,1.04 0.76,2.2 0.24,1.16 0.24,2.36 v 12.6 q 0,1.2 -0.24,2.36 -0.2,1.16 -0.76,2.24 -0.52,1.04 -1.4,1.88 -0.84,0.8 -1.92,1.32 -1.08,0.52 -2.24,0.72 -1.16,0.2 -2.36,0.2 z m -5.08,-13.6 10.16,-6.72 v -1 q 0,-0.72 -0.12,-1.4 -0.12,-0.68 -0.4,-1.32 -0.28,-0.64 -0.76,-1.16 -0.48,-0.52 -1.12,-0.84 -0.6,-0.36 -1.28,-0.48 -0.68,-0.16 -1.4,-0.16 -0.72,0 -1.4,0.16 -0.68,0.12 -1.32,0.48 -0.6,0.32 -1.08,0.84 -0.48,0.52 -0.76,1.16 -0.28,0.64 -0.4,1.32 -0.12,0.68 -0.12,1.4 z m 5.08,10.24 q 0.72,0 1.4,-0.12 0.68,-0.16 1.28,-0.48 0.64,-0.36 1.12,-0.88 0.48,-0.52 0.76,-1.16 0.28,-0.64 0.4,-1.32 0.12,-0.68 0.12,-1.4 v -7.72 l -10.16,6.72 v 1 q 0,0.72 0.12,1.4 0.12,0.68 0.4,1.32 0.28,0.64 0.76,1.16 0.48,0.52 1.08,0.88 0.64,0.32 1.32,0.48 0.68,0.12 1.4,0.12 z"
          id="text18"
          aria-label="0&#10;" />
      <path
          d="m 157.2,124.94 q -1.2,0 -2.36,-0.2 -1.16,-0.2 -2.24,-0.72 -1.08,-0.52 -1.96,-1.32 -0.84,-0.84 -1.4,-1.88 -0.52,-1.08 -0.76,-2.24 -0.2,-1.16 -0.2,-2.36 v -12.59999 q 0,-1.2 0.2,-2.36 0.24,-1.16 0.76,-2.200004 0.56,-1.08 1.4,-1.88 0.88,-0.84 1.96,-1.36 1.08,-0.52 2.24,-0.72 1.16,-0.2 2.36,-0.2 1.2,0 2.36,0.2 1.16,0.2 2.24,0.72 1.08,0.52 1.92,1.36 0.88,0.8 1.4,1.88 0.56,1.040004 0.76,2.200004 0.24,1.16 0.24,2.36 V 116.22 q 0,1.2 -0.24,2.36 -0.2,1.16 -0.76,2.24 -0.52,1.04 -1.4,1.88 -0.84,0.8 -1.92,1.32 -1.08,0.52 -2.24,0.72 -1.16,0.2 -2.36,0.2 z m -5.08,-13.6 10.16,-6.71999 v -1 q 0,-0.72 -0.12,-1.4 -0.12,-0.68 -0.4,-1.32 -0.28,-0.64 -0.76,-1.160004 -0.48,-0.52 -1.12,-0.84 -0.6,-0.36 -1.28,-0.48 -0.68,-0.16 -1.4,-0.16 -0.72,0 -1.4,0.16 -0.68,0.12 -1.32,0.48 -0.6,0.32 -1.08,0.84 -0.48,0.520004 -0.76,1.160004 -0.28,0.64 -0.4,1.32 -0.12,0.68 -0.12,1.4 z m 5.08,10.24 q 0.72,0 1.4,-0.12 0.68,-0.16 1.28,-0.48 0.64,-0.36 1.12,-0.88 0.48,-0.52 0.76,-1.16 0.28,-0.64 0.4,-1.32 0.12,-0.68 0.12,-1.4 v -7.72 l -10.16,6.72 v 1 q 0,0.72 0.12,1.4 0.12,0.68 0.4,1.32 0.28,0.64 0.76,1.16 0.48,0.52 1.08,0.88 0.64,0.32 1.32,0.48 0.68,0.12 1.4,0.12 z"
          id="text20"
          aria-label="0&#10;" />
      <path
          d="m 62.800006,124.94 q -1.2,0 -2.36,-0.2 -1.16,-0.2 -2.24,-0.72 -1.08,-0.52 -1.96,-1.32 -0.84,-0.84 -1.4,-1.88 -0.52,-1.08 -0.76,-2.24 -0.2,-1.16 -0.2,-2.36 v -12.59999 q 0,-1.2 0.2,-2.36 0.24,-1.16 0.76,-2.200004 0.56,-1.08 1.4,-1.88 0.88,-0.84 1.96,-1.36 1.08,-0.52 2.24,-0.72 1.16,-0.2 2.36,-0.2 1.2,0 2.36,0.2 1.16,0.2 2.24,0.72 1.08,0.52 1.92,1.36 0.88,0.8 1.4,1.88 0.56,1.040004 0.76,2.200004 0.24,1.16 0.24,2.36 V 116.22 q 0,1.2 -0.24,2.36 -0.2,1.16 -0.76,2.24 -0.52,1.04 -1.4,1.88 -0.84,0.8 -1.92,1.32 -1.08,0.52 -2.24,0.72 -1.16,0.2 -2.36,0.2 z m -5.08,-13.6 10.16,-6.71999 v -1 q 0,-0.72 -0.12,-1.4 -0.12,-0.68 -0.4,-1.32 -0.28,-0.64 -0.76,-1.160004 -0.48,-0.52 -1.12,-0.84 -0.6,-0.36 -1.28,-0.48 -0.68,-0.16 -1.4,-0.16 -0.72,0 -1.4,0.16 -0.68,0.12 -1.32,0.48 -0.6,0.32 -1.08,0.84 -0.48,0.520004 -0.76,1.160004 -0.28,0.64 -0.4,1.32 -0.12,0.68 -0.12,1.4 z m 5.08,10.24 q 0.72,0 1.4,-0.12 0.68,-0.16 1.28,-0.48 0.64,-0.36 1.12,-0.88 0.48,-0.52 0.76,-1.16 0.28,-0.64 0.4,-1.32 0.12,-0.68 0.12,-1.4 v -7.72 l -10.16,6.72 v 1 q 0,0.72 0.12,1.4 0.12,0.68 0.4,1.32 0.28,0.64 0.76,1.16 0.48,0.52 1.08,0.88 0.64,0.32 1.32,0.48 0.68,0.12 1.4,0.12 z"
          id="text22"
          aria-label="0&#10;" />
      <path
          d="m 110,168.29998 q -1.2,0 -2.36,-0.2 -1.16,-0.2 -2.24,-0.72 -1.08,-0.52 -1.96,-1.32 -0.84,-0.84 -1.4,-1.88 -0.52,-1.08 -0.76,-2.24 -0.2,-1.16 -0.2,-2.36 v -12.6 q 0,-1.2 0.2,-2.36 0.24,-1.16 0.76,-2.2 0.56,-1.08 1.4,-1.88 0.88,-0.84 1.96,-1.36 1.08,-0.52 2.24,-0.72 1.16,-0.2 2.36,-0.2 1.2,0 2.36,0.2 1.16,0.2 2.24,0.72 1.08,0.52 1.92,1.36 0.88,0.8 1.4,1.88 0.56,1.04 0.76,2.2 0.24,1.16 0.24,2.36 v 12.6 q 0,1.2 -0.24,2.36 -0.2,1.16 -0.76,2.24 -0.52,1.04 -1.4,1.88 -0.84,0.8 -1.92,1.32 -1.08,0.52 -2.24,0.72 -1.16,0.2 -2.36,0.2 z m -5.08,-13.6 10.16,-6.72 v -1 q 0,-0.72 -0.12,-1.4 -0.12,-0.68 -0.4,-1.32 -0.28,-0.64 -0.76,-1.16 -0.48,-0.52 -1.12,-0.84 -0.6,-0.36 -1.28,-0.48 -0.68,-0.16 -1.4,-0.16 -0.72,0 -1.4,0.16 -0.68,0.12 -1.32,0.48 -0.6,0.32 -1.08,0.84 -0.48,0.52 -0.76,1.16 -0.28,0.64 -0.4,1.32 -0.12,0.68 -0.12,1.4 z m 5.08,10.24 q 0.72,0 1.4,-0.12 0.68,-0.16 1.28,-0.48 0.64,-0.36 1.12,-0.88 0.48,-0.52 0.76,-1.16 0.28,-0.64 0.4,-1.32 0.12,-0.68 0.12,-1.4 v -7.72 l -10.16,6.72 v 1 q 0,0.72 0.12,1.4 0.12,0.68 0.4,1.32 0.28,0.64 0.76,1.16 0.48,0.52 1.08,0.88 0.64,0.32 1.32,0.48 0.68,0.12 1.4,0.12 z"
          id="text24"
          aria-label="0&#10;" />
    </g>
  </g>
  <metadata
      id="metadata1">
    <rdf:RDF>
      <cc:Work
          rdf:about="">
        <dc:title>5bits.one</dc:title>
        <dc:creator>
	  <cc:Agent>
	    <dc:title>ttybitnik</dc:title>
	  </cc:Agent>
        </dc:creator>
      </cc:Work>
    </rdf:RDF>
  </metadata>
</svg>
